<svg xmlns="http://www.w3.org/2000/svg" width="200" height="210" viewBox="0 0 59 69" fill="none">
<path d="M39.5432 27.3784C38.2395 28.8907 36.9268 30.3994 35.6115 31.9027C34.0479 30.7105 32.256 29.8159 30.314 29.3025C30.9298 28.594 31.5502 27.8873 32.1679 27.1788C32.1679 27.1788 32.1688 27.1797 32.1706 27.1815C33.1956 26.0082 34.2152 24.8304 35.2473 23.6633C35.6861 23.1688 36.0511 23.1913 36.6814 23.7335C37.5481 24.4815 38.4103 25.2367 39.2672 25.9947C39.8363 26.4991 39.9406 26.9199 39.5441 27.3793L39.5432 27.3784Z" fill="black"/>
<path d="M47.6197 41.5986C45.5491 43.8643 43.4695 46.1246 41.3809 48.3769C41.6803 47.1523 41.8412 45.872 41.8412 44.5521C41.8412 43.0209 41.6272 41.5428 41.2253 40.142C41.9545 39.3499 42.6873 38.5596 43.4191 37.7693C44.0926 37.0446 44.5808 36.9448 45.185 37.4717C46.0652 38.2404 46.9256 39.0334 47.7573 39.8534C48.2869 40.374 48.241 40.9224 47.6206 41.5986H47.6197Z" fill="black"/>
<path d="M38.9127 16.0659C39.8505 14.9538 39.9413 14.3334 39.2715 13.7328C38.4722 13.0153 37.6594 12.3122 36.8313 11.6262C36.1606 11.0705 35.5555 11.2297 34.6465 12.2699C32.3646 14.8809 30.0989 17.5063 27.8475 20.1425C26.9385 21.207 26.8576 21.8166 27.505 22.4064C28.316 23.1463 29.1458 23.8647 30 24.5534C30.6797 25.1028 31.2569 24.9194 32.192 23.8602C33.3518 22.5475 34.4847 21.2106 35.6292 19.8835C35.6292 19.8835 35.6274 19.8817 35.6265 19.8817C36.7234 18.6104 37.8311 17.3481 38.9136 16.065L38.9127 16.0659Z" fill="black"/>
<path d="M28.592 28.0383C28.3573 28.3171 28.1226 28.594 27.8853 28.87C27.4132 28.8233 26.9349 28.7999 26.4512 28.7999C23.4518 28.7999 20.6466 29.6828 18.2793 31.2095C18.4465 31.0144 18.6183 30.8193 18.7855 30.6242C20.5882 28.5328 22.3846 26.437 24.2017 24.3601C25.3912 22.9989 25.9468 22.8425 26.783 23.5608C27.5103 24.1857 28.2377 24.8133 28.9624 25.4426C29.7707 26.1439 29.7015 26.7203 28.5911 28.0383H28.592Z" fill="black"/>
<path d="M45.1921 32.6318C43.6466 34.4903 42.092 36.3424 40.5285 38.1901C39.7319 36.3451 38.5954 34.6863 37.2036 33.2945C37.4662 32.9834 37.7314 32.6714 37.9939 32.3603C38.9119 31.2661 39.8272 30.1665 40.7524 29.0768C41.4492 28.2568 41.9302 28.1354 42.5533 28.6443C43.4568 29.3834 44.3514 30.1359 45.2344 30.9002C45.7783 31.3722 45.7783 31.9224 45.1921 32.6309V32.6318Z" fill="black"/>
<path d="M40.2128 41.2434C40.0618 40.5601 39.8667 39.9002 39.6275 39.2591C39.3929 38.6198 39.1159 38.004 38.7959 37.407C38.1449 36.1941 37.3717 35.1178 36.4627 34.1747V34.172C35.9745 33.6559 35.4422 33.1794 34.8758 32.7433C34.5269 32.4763 34.1628 32.2228 33.7834 31.9836C32.4545 31.1474 31.0204 30.5729 29.4776 30.2618C28.6576 30.0973 27.8071 30.0038 26.926 29.9876C26.8217 29.9831 26.7147 29.9831 26.6077 29.9831C24.4516 29.9831 22.4718 30.4317 20.6637 31.3263C19.2926 32.0052 18.0725 32.8665 17.0062 33.9149C16.7131 34.2008 16.4326 34.5029 16.1601 34.8184C16.1179 34.867 16.0738 34.9182 16.0325 34.9695V34.9623C13.7946 37.5041 12.4334 40.8685 12.4334 44.5521C12.4334 52.4642 18.7208 58.8999 26.4512 58.8999C32.2693 58.8999 37.2719 55.2541 39.3893 50.0753C40.4367 47.5119 40.47 44.5521 40.47 44.5521C40.5014 43.1981 40.3594 42.0625 40.2119 41.2434H40.2128ZM33.974 50.4169C33.1162 51.9876 31.9573 53.2194 30.4954 54.114C29.0361 55.0113 27.3746 55.4573 25.5117 55.4573C23.6487 55.4573 22.0331 55.0113 20.5531 54.114C19.075 53.2194 17.9161 51.9876 17.0745 50.4169C16.2357 48.8489 15.8149 47.0938 15.8149 45.159C15.8149 43.2241 16.2357 41.434 17.0745 39.9011C17.8208 38.5416 18.8152 37.433 20.0604 36.5762C20.2205 36.4674 20.3832 36.3604 20.5531 36.2579C21.0692 35.9441 21.6105 35.6861 22.1706 35.4838C23.2118 35.1053 24.3249 34.9147 25.5117 34.9147C27.3755 34.9147 29.0361 35.3633 30.4954 36.2579C31.9573 37.1525 33.1162 38.3681 33.974 39.9011C34.8335 41.4349 35.2615 43.1864 35.2615 45.159C35.2615 47.1316 34.8335 48.8489 33.974 50.4169ZM26.4521 60.3034C17.9664 60.3034 11.0631 53.2374 11.0631 44.5521C11.0631 39.9766 12.98 35.8506 16.0334 32.9717V26.5216C16.0334 25.894 15.5245 25.3851 14.8969 25.3851H11.5837C10.9562 25.3851 10.4473 25.894 10.4473 26.5216V45.159C10.4823 48.0451 11.1585 50.6354 12.4738 52.938C13.7892 55.2379 15.5784 57.055 17.8415 58.3865C20.1072 59.7199 22.6633 60.387 25.5117 60.387C26.2552 60.387 26.9781 60.343 27.6794 60.2522C27.2748 60.2872 26.8657 60.3034 26.4521 60.3034Z" fill="black"/>
<path opacity="0.64" d="M37.0282 19.3153C40.234 19.3153 42.8328 16.7165 42.8328 13.5107C42.8328 10.3049 40.234 7.70612 37.0282 7.70612C33.8224 7.70612 31.2236 10.3049 31.2236 13.5107C31.2236 16.7165 33.8224 19.3153 37.0282 19.3153Z" fill="#F2F2F2"/>
</svg>