<svg width="106" height="60" viewBox="0 0 106 60" fill="none" xmlns="http://www.w3.org/2000/svg">
<path d="M41.9801 46.176C41.7191 46.176 41.4799 46.1465 41.2632 46.0882C41.0457 46.03 40.8515 45.9438 40.6791 45.8304C40.5074 45.717 40.349 45.5787 40.206 45.4164L40.6596 44.8493C40.8787 45.1026 41.0962 45.2804 41.3113 45.3822C41.5265 45.4839 41.7626 45.5352 42.0197 45.5352C42.1673 45.5352 42.3048 45.5166 42.4337 45.4785C42.5619 45.4404 42.6659 45.383 42.7452 45.3053C42.8244 45.2276 42.864 45.1344 42.864 45.0249C42.864 44.9534 42.8454 44.8897 42.8073 44.8346C42.7692 44.7802 42.7172 44.7328 42.6512 44.6932C42.5852 44.6536 42.5075 44.6187 42.4189 44.5884C42.3304 44.5581 42.2364 44.5324 42.1385 44.5115C42.0399 44.4905 41.9381 44.4726 41.8325 44.4579C41.6057 44.4198 41.4038 44.3693 41.2259 44.3049C41.048 44.2404 40.8989 44.1581 40.7777 44.0579C40.6565 43.9577 40.5649 43.8419 40.5027 43.7091C40.4406 43.5771 40.4095 43.424 40.4095 43.2501C40.4095 43.0761 40.4499 42.9176 40.5315 42.7739C40.613 42.6302 40.7264 42.5075 40.8717 42.4058C41.0169 42.304 41.1855 42.224 41.3766 42.1673C41.5676 42.1106 41.7727 42.0826 41.9917 42.0826C42.2372 42.0826 42.4578 42.109 42.652 42.1619C42.8469 42.2147 43.0178 42.2923 43.1654 42.3941C43.313 42.4959 43.4372 42.617 43.5398 42.7568L43.0753 43.2555C42.9844 43.1382 42.8827 43.0411 42.7692 42.9634C42.6558 42.8858 42.5323 42.8275 42.398 42.7879C42.2636 42.7483 42.1246 42.7281 41.9816 42.7281C41.8232 42.7281 41.6842 42.7467 41.5653 42.7848C41.4465 42.8229 41.3517 42.8772 41.2818 42.9495C41.2119 43.0217 41.177 43.1079 41.177 43.2104C41.177 43.2897 41.1987 43.3596 41.2422 43.4202C41.2857 43.4807 41.3478 43.5336 41.4294 43.5786C41.5109 43.6237 41.6088 43.6617 41.7245 43.692C41.8395 43.7223 41.9677 43.7487 42.1075 43.7712C42.3226 43.8093 42.523 43.8567 42.7087 43.9134C42.8935 43.9701 43.0551 44.0423 43.1933 44.1285C43.3316 44.2155 43.438 44.3227 43.5134 44.4486C43.5887 44.5752 43.6268 44.7274 43.6268 44.9053C43.6268 45.1663 43.5576 45.3923 43.4201 45.5826C43.2819 45.7737 43.09 45.9197 42.8446 46.0222C42.5991 46.124 42.3118 46.1752 41.9832 46.1752L41.9801 46.176Z" fill="#1A1A1A"/>
<path d="M47.8708 46.176C47.557 46.176 47.2688 46.1247 47.0063 46.023C46.7438 45.9212 46.5138 45.7775 46.3173 45.5919C46.1208 45.407 45.9693 45.1896 45.8637 44.9402C45.7581 44.6909 45.7053 44.4206 45.7053 44.1293C45.7053 43.8381 45.7581 43.5677 45.8637 43.3184C45.9693 43.0691 46.1208 42.8516 46.3173 42.6667C46.5138 42.4819 46.7438 42.3382 47.0063 42.2357C47.2688 42.1339 47.557 42.0826 47.8708 42.0826C48.1846 42.0826 48.4735 42.1339 48.7384 42.2357C49.0033 42.3374 49.2316 42.4819 49.4242 42.6691C49.6169 42.8563 49.7676 43.0737 49.8748 43.3207C49.9827 43.5685 50.0363 43.8381 50.0363 44.1285C50.0363 44.419 49.9827 44.6839 49.8748 44.9332C49.7668 45.1826 49.6169 45.4008 49.4242 45.588C49.2316 45.7752 49.0025 45.9197 48.7384 46.0222C48.4735 46.124 48.1846 46.1752 47.8708 46.1752V46.176ZM47.8708 45.4731C48.0782 45.4731 48.2685 45.4404 48.4409 45.3736C48.6126 45.3076 48.7625 45.2129 48.8891 45.0901C49.0157 44.9674 49.1136 44.8245 49.1842 44.6622C49.2541 44.4998 49.2891 44.322 49.2891 44.1293C49.2891 43.9367 49.2541 43.7588 49.1842 43.5965C49.1143 43.4341 49.0157 43.2912 48.8891 43.1685C48.7625 43.0458 48.6133 42.951 48.4409 42.885C48.2692 42.819 48.0789 42.7856 47.8708 42.7856C47.6626 42.7856 47.4778 42.819 47.3038 42.885C47.1298 42.951 46.9799 43.0458 46.8533 43.1685C46.7267 43.2912 46.6296 43.4341 46.5612 43.5965C46.4929 43.7588 46.4595 43.9367 46.4595 44.1293C46.4595 44.322 46.4936 44.4998 46.5612 44.6622C46.6296 44.8245 46.7267 44.9674 46.8533 45.0901C46.9799 45.2129 47.1298 45.3076 47.3038 45.3736C47.4778 45.4397 47.6665 45.4731 47.8708 45.4731Z" fill="#1A1A1A"/>
<path d="M52.4008 46.1193V42.1502H53.1379V45.4389H55.2864V46.1193H52.4008Z" fill="#1A1A1A"/>
<path d="M59.3123 46.1535C58.9604 46.1535 58.6505 46.0797 58.3825 45.9321C58.1138 45.7845 57.9033 45.5818 57.7502 45.3224C57.5972 45.0637 57.5203 44.7717 57.5203 44.4462V42.1448H58.2629V44.4066C58.2629 44.6109 58.3103 44.7919 58.405 44.9511C58.4998 45.1095 58.6264 45.2362 58.7849 45.3309C58.9433 45.4257 59.1196 45.4723 59.3123 45.4723C59.5204 45.4723 59.7053 45.4249 59.8676 45.3309C60.03 45.2362 60.1589 45.1095 60.2529 44.9511C60.3476 44.7926 60.3942 44.6109 60.3942 44.4066V42.1448H61.1088V44.4462C61.1088 44.7717 61.0319 45.0637 60.8789 45.3224C60.7259 45.581 60.5154 45.7845 60.2467 45.9321C59.9779 46.0797 59.6664 46.1535 59.3115 46.1535H59.3123Z" fill="#1A1A1A"/>
<path d="M65.5314 46.176C65.2292 46.176 64.9496 46.1271 64.6925 46.0285C64.4354 45.9306 64.2117 45.79 64.0207 45.609C63.8296 45.4273 63.6812 45.2113 63.5756 44.9597C63.4699 44.708 63.4171 44.4315 63.4171 44.1294C63.4171 43.8272 63.4731 43.5701 63.5841 43.3247C63.6952 43.0792 63.849 42.8648 64.0432 42.6815C64.2381 42.4982 64.4649 42.3553 64.7236 42.2536C64.9822 42.1518 65.2595 42.1005 65.5539 42.1005C65.773 42.1005 65.9835 42.1308 66.1862 42.1914C66.3881 42.252 66.5738 42.3312 66.7415 42.4291C66.9101 42.5277 67.0483 42.6373 67.1586 42.7576L66.705 43.313C66.5955 43.2074 66.4798 43.1173 66.3594 43.0435C66.2382 42.9697 66.1093 42.9122 65.971 42.8703C65.8328 42.8283 65.6867 42.8081 65.5314 42.8081C65.3535 42.8081 65.1819 42.8392 65.0156 42.9013C64.8494 42.9635 64.7042 43.0536 64.5791 43.1709C64.4541 43.2882 64.3554 43.428 64.2816 43.5903C64.2078 43.7526 64.1713 43.9344 64.1713 44.1348C64.1713 44.3352 64.2078 44.5286 64.2816 44.6933C64.3554 44.8579 64.4579 44.9977 64.5908 45.1127C64.7228 45.2277 64.8758 45.317 65.0498 45.3791C65.2238 45.4413 65.411 45.4723 65.6114 45.4723C65.7776 45.4723 65.9306 45.4498 66.0704 45.4047C66.2103 45.3597 66.3369 45.3014 66.4503 45.2315C66.5637 45.1616 66.6677 45.0847 66.7617 45.0016L67.119 45.5912C67.0204 45.6859 66.8891 45.7784 66.7252 45.8692C66.5606 45.9601 66.3749 46.0339 66.1668 46.0906C65.9586 46.1473 65.7473 46.176 65.5314 46.176Z" fill="#1A1A1A"/>
<path d="M69.4097 46.1193V45.4505H70.2206V42.8198H69.4097V42.151H71.7679V42.8198H70.9569V45.4505H71.7679V46.1193H69.4097Z" fill="#1A1A1A"/>
<path d="M76.1562 46.176C75.8424 46.176 75.5542 46.1247 75.2917 46.023C75.0292 45.9212 74.7993 45.7775 74.6027 45.5919C74.4062 45.407 74.2548 45.1896 74.1491 44.9402C74.0435 44.6909 73.9907 44.4206 73.9907 44.1293C73.9907 43.8381 74.0435 43.5677 74.1491 43.3184C74.2548 43.0691 74.4062 42.8516 74.6027 42.6667C74.7993 42.4819 75.0292 42.3382 75.2917 42.2357C75.5542 42.1339 75.8424 42.0826 76.1562 42.0826C76.47 42.0826 76.7589 42.1339 77.0238 42.2357C77.2887 42.3374 77.517 42.4819 77.7097 42.6691C77.9023 42.8563 78.053 43.0737 78.1602 43.3207C78.2681 43.5685 78.3217 43.8381 78.3217 44.1285C78.3217 44.419 78.2681 44.6839 78.1602 44.9332C78.0522 45.1826 77.9023 45.4008 77.7097 45.588C77.517 45.7752 77.2879 45.9197 77.0238 46.0222C76.7589 46.124 76.47 46.1752 76.1562 46.1752V46.176ZM76.1562 45.4731C76.3636 45.4731 76.5539 45.4404 76.7263 45.3736C76.898 45.3076 77.0479 45.2129 77.1745 45.0901C77.3011 44.9674 77.399 44.8245 77.4689 44.6622C77.5388 44.4998 77.5737 44.322 77.5737 44.1293C77.5737 43.9367 77.5388 43.7588 77.4689 43.5965C77.399 43.4341 77.3003 43.2912 77.1745 43.1685C77.0479 43.0458 76.8988 42.951 76.7263 42.885C76.5539 42.819 76.3644 42.7856 76.1562 42.7856C75.948 42.7856 75.7632 42.819 75.5892 42.885C75.4152 42.951 75.2653 43.0458 75.1387 43.1685C75.0121 43.2912 74.915 43.4341 74.8466 43.5965C74.7791 43.7588 74.7449 43.9367 74.7449 44.1293C74.7449 44.322 74.7791 44.4998 74.8466 44.6622C74.915 44.8245 75.0121 44.9674 75.1387 45.0901C75.2653 45.2129 75.4152 45.3076 75.5892 45.3736C75.7632 45.4397 75.9519 45.4731 76.1562 45.4731Z" fill="#1A1A1A"/>
<path d="M80.6862 46.1193V42.1502H81.3721L83.9912 45.2517L83.8895 45.2742C83.8708 45.1608 83.8553 45.0443 83.8444 44.9255C83.8335 44.8066 83.8227 44.6847 83.8134 44.5596C83.804 44.4346 83.7963 44.3064 83.7908 44.1744C83.7854 44.0423 83.7815 43.9072 83.7799 43.7689C83.7776 43.6307 83.7768 43.4885 83.7768 43.3409V42.1502H84.5085V46.1193H83.811L81.1802 43.0636L81.3053 43.024C81.3169 43.1794 81.3278 43.3184 81.3395 43.4435C81.3511 43.5685 81.362 43.6827 81.3736 43.7868C81.3845 43.8909 81.3931 43.9872 81.3993 44.0757C81.4047 44.1643 81.4094 44.2513 81.4133 44.3367C81.4171 44.4221 81.4187 44.5037 81.4187 44.5837V46.1201H80.687L80.6862 46.1193Z" fill="#1A1A1A"/>
<path d="M87.144 46.1193V42.1502H90.0583V42.819H87.8695V45.4498H90.0809V46.1185H87.144V46.1193ZM87.5068 44.419V43.7611H89.7686V44.419H87.5068Z" fill="#1A1A1A"/>
<path d="M94.0267 46.176C93.7657 46.176 93.5264 46.1465 93.3097 46.0882C93.0923 46.03 92.8973 45.9438 92.7256 45.8304C92.5532 45.717 92.3955 45.5787 92.2518 45.4164L92.7054 44.8494C92.9245 45.1026 93.142 45.2804 93.3579 45.3822C93.573 45.4839 93.8092 45.5352 94.0663 45.5352C94.2139 45.5352 94.3513 45.5166 94.4803 45.4785C94.6084 45.4404 94.7125 45.383 94.7925 45.3053C94.8717 45.2276 94.9114 45.1344 94.9114 45.0249C94.9114 44.9534 94.8927 44.8897 94.8547 44.8346C94.8166 44.7802 94.7646 44.7328 94.6985 44.6932C94.6325 44.6536 94.5548 44.6187 94.4663 44.5884C94.377 44.5581 94.2838 44.5324 94.1859 44.5115C94.0872 44.4905 93.9855 44.4726 93.8799 44.4579C93.6531 44.4198 93.4511 44.3693 93.2732 44.3049C93.0954 44.2404 92.9462 44.1581 92.8251 44.0579C92.7039 43.9577 92.6122 43.8419 92.5501 43.7091C92.488 43.5771 92.4569 43.4241 92.4569 43.2501C92.4569 43.0761 92.4973 42.9176 92.5788 42.7739C92.6604 42.6302 92.7738 42.5075 92.919 42.4058C93.0643 42.304 93.2328 42.224 93.4239 42.1673C93.615 42.1106 93.8201 42.0826 94.0391 42.0826C94.2845 42.0826 94.5051 42.109 94.6993 42.1619C94.8943 42.2147 95.0651 42.2924 95.212 42.3941C95.3595 42.4959 95.4838 42.617 95.5863 42.7568L95.1211 43.2555C95.0302 43.1382 94.9284 43.0411 94.815 42.9635C94.7016 42.8858 94.5774 42.8275 94.4438 42.7879C94.3094 42.7483 94.1704 42.7281 94.0274 42.7281C93.869 42.7281 93.7299 42.7467 93.6111 42.7848C93.4923 42.8229 93.3975 42.8772 93.3276 42.9495C93.2577 43.0217 93.2227 43.1079 93.2227 43.2105C93.2227 43.2897 93.2445 43.3596 93.288 43.4202C93.3315 43.4808 93.3936 43.5336 93.4752 43.5786C93.5567 43.6237 93.6546 43.6617 93.7696 43.692C93.8845 43.7223 94.0127 43.7487 94.1525 43.7712C94.3676 43.8093 94.568 43.8567 94.7537 43.9134C94.9385 43.9701 95.1001 44.0423 95.2384 44.1285C95.3766 44.2155 95.483 44.3227 95.5584 44.4486C95.6337 44.5752 95.6718 44.7274 95.6718 44.9053C95.6718 45.1663 95.6026 45.3923 95.4652 45.5826C95.3269 45.7737 95.1351 45.9197 94.8896 46.0222C94.6442 46.124 94.3568 46.1752 94.0282 46.1752L94.0267 46.176Z" fill="#1A1A1A"/>
<path d="M30.2402 25.5003C29.3438 26.5411 28.4405 27.578 27.5356 28.6119C26.4598 27.7916 25.2279 27.1765 23.8912 26.8231C24.3145 26.3353 24.7417 25.8498 25.1665 25.362C25.1665 25.362 25.1671 25.3626 25.1681 25.3636C25.8726 24.5566 26.5748 23.7464 27.2839 22.9441C27.5861 22.6039 27.837 22.6194 28.2704 22.9922C28.8669 23.5072 29.4595 24.0261 30.0491 24.5472C30.4406 24.8944 30.5128 25.1834 30.2394 25.4995L30.2402 25.5003Z" fill="#1A1A1A"/>
<path d="M35.7963 35.2816C34.3726 36.8397 32.9418 38.3947 31.5049 39.9436C31.7107 39.1016 31.821 38.2208 31.821 37.3128C31.821 36.2595 31.6742 35.2428 31.3977 34.2789C31.8995 33.7336 32.4028 33.1907 32.9061 32.6469C33.3698 32.1483 33.7054 32.0799 34.1209 32.4427C34.7268 32.9716 35.3179 33.5169 35.8903 34.0808C36.2546 34.4389 36.2227 34.8163 35.7963 35.2808V35.2816Z" fill="#1A1A1A"/>
<path d="M29.806 17.7197C30.4507 16.9546 30.5136 16.5282 30.053 16.115C29.5031 15.621 28.9438 15.1379 28.3745 14.6664C27.9131 14.2842 27.4968 14.3938 26.8715 15.1091C25.3025 16.9049 23.7436 18.7108 22.1948 20.5245C21.5695 21.2562 21.5144 21.6756 21.9595 22.0818C22.5172 22.5906 23.0881 23.0846 23.6753 23.5592C24.1429 23.9367 24.5398 23.8108 25.1829 23.0823C25.9806 22.1789 26.7597 21.2593 27.5473 20.3466C27.5473 20.3466 27.5457 20.3458 27.5457 20.3451C28.2999 19.4705 29.0627 18.6021 29.8068 17.7197H29.806Z" fill="#1A1A1A"/>
<path d="M22.7076 25.9539C22.546 26.1457 22.3845 26.336 22.2214 26.5263C21.8967 26.4945 21.5673 26.4781 21.2349 26.4781C19.1719 26.4781 17.2425 27.0855 15.6137 28.1357C15.7287 28.0013 15.8467 27.8669 15.9625 27.7326C17.2029 26.2941 18.4379 24.8524 19.6884 23.4233C20.5071 22.4865 20.8885 22.3793 21.464 22.8733C21.9643 23.3036 22.4645 23.7347 22.9631 24.1681C23.5193 24.6505 23.4711 25.0474 22.7076 25.9531V25.9539Z" fill="#1A1A1A"/>
<path d="M34.1254 29.1144C33.0628 30.3929 31.9932 31.6668 30.9175 32.9375C30.3691 31.6683 29.5877 30.5273 28.63 29.5696C28.811 29.3552 28.9927 29.1408 29.1737 28.9272C29.8052 28.1746 30.4351 27.4188 31.0705 26.6685C31.5497 26.1046 31.8806 26.0215 32.3094 26.371C32.9307 26.879 33.5467 27.3971 34.1541 27.9229C34.5277 28.2476 34.5277 28.6259 34.1254 29.1136V29.1144Z" fill="#1A1A1A"/>
<path d="M30.7007 35.037C30.5966 34.567 30.4623 34.1134 30.2976 33.6723C30.136 33.2326 29.9457 32.8093 29.7251 32.3984C29.2777 31.5642 28.7457 30.824 28.1204 30.1754V30.1739C27.7849 29.8189 27.419 29.4911 27.0291 29.1905C26.7891 29.0064 26.5382 28.8324 26.278 28.6678C25.3638 28.0922 24.3774 27.6976 23.3163 27.4833C22.7524 27.3699 22.1676 27.3062 21.5617 27.2945C21.4895 27.2914 21.4165 27.2914 21.3427 27.2914C19.8591 27.2914 18.4975 27.5998 17.254 28.2149C16.311 28.6818 15.4721 29.2744 14.7381 29.9952C14.5369 30.1917 14.3435 30.3999 14.1563 30.6166C14.1276 30.65 14.0973 30.6849 14.0686 30.7207V30.716C12.5291 32.4644 11.5931 34.7791 11.5931 37.312C11.5931 42.7538 15.918 47.1812 21.2355 47.1812C25.2372 47.1812 28.6789 44.6731 30.1345 41.111C30.8553 39.3478 30.8778 37.312 30.8778 37.312C30.8996 36.3807 30.8017 35.5993 30.7007 35.0362V35.037ZM26.4093 41.3471C25.8197 42.4276 25.022 43.275 24.0169 43.8902C23.0134 44.5069 21.8701 44.8137 20.5885 44.8137C19.3069 44.8137 18.1961 44.5069 17.1778 43.8902C16.1611 43.275 15.3642 42.4276 14.7855 41.3471C14.2084 40.2683 13.9194 39.0612 13.9194 37.7299C13.9194 36.3986 14.2084 35.1675 14.7855 34.1127C15.2989 33.1775 15.9824 32.4155 16.8392 31.8252C16.9495 31.7498 17.0613 31.6768 17.1778 31.6062C17.5328 31.3902 17.9049 31.2131 18.2901 31.0741C19.0063 30.8139 19.7713 30.6826 20.5885 30.6826C21.8701 30.6826 23.0134 30.991 24.0169 31.6062C25.022 32.2213 25.8197 33.0571 26.4093 34.1119C27.0004 35.1667 27.2948 36.3722 27.2948 37.7291C27.2948 39.0861 27.0004 40.2675 26.4093 41.3464V41.3471ZM21.2355 48.1482C15.3983 48.1482 10.6502 43.2882 10.6502 37.3136C10.6502 34.1663 11.9691 31.3281 14.0686 29.3474V24.9107C14.0686 24.4789 13.7183 24.1293 13.2872 24.1293H11.0083C10.5764 24.1293 10.2269 24.4796 10.2269 24.9107V37.7307C10.2509 39.716 10.7162 41.4978 11.6203 43.0816C12.5252 44.6638 13.7556 45.9135 15.3121 46.8293C16.8702 47.7466 18.6288 48.2057 20.5877 48.2057C21.0988 48.2057 21.5959 48.1754 22.079 48.1132C21.8009 48.1373 21.5198 48.1482 21.2355 48.1482Z" fill="#FF571D"/>
<path opacity="0.93" d="M28.5106 19.9543C30.7159 19.9543 32.5037 18.1665 32.5037 15.9611C32.5037 13.7558 30.7159 11.968 28.5106 11.968C26.3052 11.968 24.5174 13.7558 24.5174 15.9611C24.5174 18.1665 26.3052 19.9543 28.5106 19.9543Z" fill="#FF571D"/>
<path d="M56.419 25.285C56.419 21.9692 53.8449 19.6592 49.5814 19.6592H39.9018V39.3462H49.5814C53.8441 39.3462 56.419 36.2967 56.419 33.0694C56.419 31.6783 55.7386 29.9905 55.0279 29.1322C55.8271 28.2444 56.419 26.7942 56.419 25.285ZM49.5814 35.6458H43.9276V31.0577H49.7881C51.4448 31.0577 52.335 31.7381 52.335 33.0702C52.335 34.4023 51.3571 35.6466 49.5814 35.6466V35.6458ZM49.7888 27.2975H43.9284V23.3603H49.5822C51.3578 23.3603 52.3357 24.0702 52.3357 25.2858C52.3357 26.5876 51.4464 27.2983 49.7888 27.2983V27.2975Z" fill="#1A1A1A"/>
<path d="M73.3519 19.545H57.9594V23.2438H73.3519V19.545Z" fill="#1A1A1A"/>
<path d="M85.0269 32.33L79.4322 39.4037H57.9594V27.6176H61.986V27.6207H71.7542V31.2939H61.986V35.7049H70.3467C72.6598 35.6995 74.9737 35.6948 77.2868 35.6909L82.4513 29.3093L74.6654 19.7182H79.7584C82.3729 22.9153 84.9873 26.1123 87.6018 29.3093C86.7435 30.316 85.8852 31.3226 85.0277 32.3292L85.0269 32.33Z" fill="#1A1A1A"/>
<path d="M95.4217 19.545C93.0123 22.502 90.6037 25.4614 88.1943 28.4192C88.0288 28.2343 87.8634 28.0518 87.6979 27.8677C87.6948 27.8622 87.6894 27.8576 87.6855 27.8521C87.0136 27.0288 86.3418 26.207 85.6699 25.3852C87.2101 23.4372 88.7543 21.493 90.2969 19.545H95.4217Z" fill="#1A1A1A"/>
<path d="M95.7737 39.2305C93.2804 36.15 90.7879 33.0702 88.2946 29.9897C87.6732 30.6888 87.0495 31.4189 86.425 32.1817C86.1889 32.4706 85.9566 32.7588 85.729 33.0454C86.4786 34.0078 87.2351 34.9724 87.9986 35.9403C88.8732 37.0479 89.7463 38.1454 90.6178 39.2328C92.3359 39.2328 94.0548 39.2313 95.7729 39.2305H95.7737Z" fill="#1A1A1A"/>
</svg>
